# xmcd CD database file
#
# Track frame offsets:
#	150
#	22309
#	37164
#	54486
#	69825
#	85311
#	103381
#	118506
#	134844
#	154800
#
# Disc length: 2267 seconds
#
# Revision: 0
# Processed by: cddbd v1.5PL3 Copyright (c) Steve Scherf et al.
# Submitted via: CDex 1.51
#
DISCID=9308d90a
DTITLE=John Williams - Long Ride Home
DYEAR=2001
DGENRE=Country
TTITLE0=Long Ride Home
TTITLE1=Rush Hour
TTITLE2=Long Walk
TTITLE3=Second Half
TTITLE4=Blind Bay
TTITLE5=Dog Don't Hunt
TTITLE6=Almond Joy
TTITLE7=Halfway Home
TTITLE8=Wayside Park
TTITLE9=(MP3 Versions)
EXTD=YEAR: 2001
EXTT0=
EXTT1=
EXTT2=
EXTT3=
EXTT4=
EXTT5=
EXTT6=
EXTT7=
EXTT8=
EXTT9=
PLAYORDER=
